<?xml version="1.0" encoding="utf-8"?>
<!-- Generator: Adobe Illustrator 21.0.2, SVG Export Plug-In . SVG Version: 6.00 Build 0)  -->
<svg version="1.1" id="Layer_1" xmlns="http://www.w3.org/2000/svg" xmlns:xlink="http://www.w3.org/1999/xlink" x="0px" y="0px"
	 viewBox="0 0 595.3 841.9" enable-background="new 0 0 595.3 841.9" xml:space="preserve">
<pattern  y="841.9" width="540" height="450" patternUnits="userSpaceOnUse" id="Unnamed_Pattern" viewBox="0 -450 540 450" overflow="visible">
	<g>
		<rect y="-450" fill="none" width="540" height="450"/>
		<rect y="-450" fill="#DCDCDC" width="540" height="450"/>
		<polygon opacity="2.999880e-02" fill="#444545" points="45,-75 0,-150 90,-150 		"/>
		<polygon opacity="2.999880e-02" points="90,0 0,0 45,-75 		"/>
		<polygon opacity="2.999880e-02" fill="#ABABAB" points="180,0 90,0 135,-75 		"/>
		<polygon opacity="2.999880e-02" fill="#DDDDDD" points="270,-150 225,-75 180,-150 		"/>
		<polygon opacity="2.999880e-02" fill="#999999" points="270,0 180,0 225,-75 		"/>
		<polygon opacity="2.999880e-02" points="360,-150 315,-75 270,-150 		"/>
		<polygon opacity="2.999880e-02" fill="#DDDDDD" points="360,0 270,0 315,-75 		"/>
		<polygon opacity="2.999880e-02" fill="#444545" points="450,-150 405,-75 360,-150 		"/>
		<polygon opacity="2.999880e-02" fill="#FFFFFF" points="450,0 360,0 405,-75 		"/>
		<polygon opacity="2.999880e-02" fill="#DDDDDD" points="450,-150 540,-150 495,-75 		"/>
		<polygon opacity="2.999880e-02" fill="#444545" points="540,0 450,0 495,-75 		"/>
		<polygon opacity="2.999880e-02" fill="#DDDDDD" points="45,-225 0,-300 90,-300 		"/>
		<polygon opacity="2.999880e-02" points="90,-150 0,-150 45,-225 		"/>
		<polygon opacity="2.999880e-02" fill="#666766" points="135,-225 90,-300 180,-300 		"/>
		<polygon opacity="2.999880e-02" fill="#ABABAB" points="180,-150 90,-150 135,-225 		"/>
		<polygon opacity="2.999880e-02" fill="#DDDDDD" points="180,-300 270,-300 225,-225 		"/>
		<polygon opacity="2.999880e-02" fill="#999999" points="270,-150 180,-150 225,-225 		"/>
		<polygon opacity="2.999880e-02" fill="#999999" points="270,-300 360,-300 315,-225 		"/>
		<polygon opacity="2.999880e-02" fill="#FFFFFF" points="360,-150 270,-150 315,-225 		"/>
		<polygon opacity="2.999880e-02" points="360,-300 450,-300 405,-225 		"/>
		<polygon opacity="2.999880e-02" fill="#DDDDDD" points="405,-225 450,-150 360,-150 		"/>
		<polygon opacity="2.999880e-02" fill="#ABABAB" points="450,-300 540,-300 495,-225 		"/>
		<polygon opacity="2.999880e-02" fill="#444545" points="495,-225 540,-150 450,-150 		"/>
		<polygon opacity="2.999880e-02" fill="#222222" points="0,-450 90,-450 45,-375 		"/>
		<polygon opacity="2.999880e-02" points="90,-450 180,-450 135,-375 		"/>
		<polygon opacity="2.999880e-02" fill="#DDDDDD" points="90,-300 135,-375 180,-300 		"/>
		<polygon opacity="2.999880e-02" points="180,-300 225,-375 270,-300 		"/>
		<polygon opacity="2.999880e-02" points="270,-450 360,-450 315,-375 		"/>
		<polygon opacity="2.999880e-02" fill="#444545" points="270,-300 315,-375 360,-300 		"/>
		<polygon opacity="2.999880e-02" fill="#ABABAB" points="360,-450 450,-450 405,-375 		"/>
		<polygon opacity="2.999880e-02" fill="#666766" points="360,-300 405,-375 450,-300 		"/>
		<polygon opacity="2.999880e-02" fill="#999999" points="450,-450 540,-450 495,-375 		"/>
		<polygon opacity="2.999880e-02" fill="#999999" points="135,-75 90,0 45,-75 		"/>
		<polygon opacity="2.999880e-02" fill="#444545" points="225,-75 180,0 135,-75 		"/>
		<polygon opacity="2.999880e-02" fill="#FFFFFF" points="315,-75 270,0 225,-75 		"/>
		<polygon opacity="2.999880e-02" points="495,-75 450,0 405,-75 		"/>
		<polygon opacity="2.999880e-02" fill="#222222" points="0,-150 0,-225 45,-225 		"/>
		<polygon opacity="2.999880e-02" fill="#FFFFFF" points="0,-75 0,-150 45,-75 		"/>
		<polygon opacity="2.999880e-02" fill="#FFFFFF" points="90,-150 45,-225 135,-225 		"/>
		<polygon opacity="2.999880e-02" fill="#666766" points="45,-75 90,-150 135,-75 		"/>
		<polygon opacity="2.999880e-02" fill="#222222" points="180,-150 135,-225 225,-225 		"/>
		<polygon opacity="2.999880e-02" fill="#FFFFFF" points="225,-75 135,-75 180,-150 		"/>
		<polygon opacity="2.999880e-02" fill="#444545" points="315,-225 270,-150 225,-225 		"/>
		<polygon opacity="2.999880e-02" fill="#222222" points="315,-75 225,-75 270,-150 		"/>
		<polygon opacity="2.999880e-02" fill="#ABABAB" points="405,-225 360,-150 315,-225 		"/>
		<polygon opacity="2.999880e-02" fill="#666766" points="405,-75 315,-75 360,-150 		"/>
		<polygon opacity="2.999880e-02" fill="#FFFFFF" points="495,-225 450,-150 405,-225 		"/>
		<polygon opacity="2.999880e-02" fill="#999999" points="495,-75 405,-75 450,-150 		"/>
		<polygon opacity="2.999880e-02" points="0,-300 0,-375 45,-375 		"/>
		<polygon opacity="2.999880e-02" fill="#666766" points="0,-225 0,-300 45,-225 		"/>
		<polygon opacity="2.999880e-02" fill="#ABABAB" points="45,-375 135,-375 90,-300 		"/>
		<polygon opacity="2.999880e-02" fill="#444545" points="45,-225 90,-300 135,-225 		"/>
		<polygon opacity="2.999880e-02" fill="#444545" points="135,-375 225,-375 180,-300 		"/>
		<polygon opacity="2.999880e-02" fill="#999999" points="135,-225 180,-300 225,-225 		"/>
		<polygon opacity="2.999880e-02" fill="#666766" points="225,-225 270,-300 315,-225 		"/>
		<polygon opacity="2.999880e-02" fill="#222222" points="315,-375 405,-375 360,-300 		"/>
		<polygon opacity="2.999880e-02" fill="#FFFFFF" points="405,-375 495,-375 450,-300 		"/>
		<polygon opacity="2.999880e-02" fill="#222222" points="450,-300 495,-225 405,-225 		"/>
		<polygon opacity="2.999880e-02" fill="#DDDDDD" points="0,-375 0,-450 45,-375 		"/>
		<polygon opacity="2.999880e-02" fill="#444545" points="45,-375 90,-450 135,-375 		"/>
		<polygon opacity="2.999880e-02" fill="#FFFFFF" points="135,-375 180,-450 225,-375 		"/>
		<polygon opacity="2.999880e-02" fill="#ABABAB" points="225,-375 270,-450 315,-375 		"/>
		<polygon opacity="2.999880e-02" fill="#FFFFFF" points="315,-375 360,-450 405,-375 		"/>
		<polygon opacity="2.999880e-02" fill="#222222" points="405,-375 450,-450 495,-375 		"/>
		<polygon opacity="2.999880e-02" fill="#222222" points="540,-225 540,-150 495,-225 		"/>
		<polygon opacity="2.999880e-02" fill="#FFFFFF" points="540,-150 540,-75 495,-75 		"/>
		<polygon opacity="2.999880e-02" points="540,-375 540,-300 495,-375 		"/>
		<polygon opacity="2.999880e-02" fill="#666766" points="540,-300 540,-225 495,-225 		"/>
		<polygon opacity="2.999880e-02" fill="#DDDDDD" points="495,-375 540,-450 540,-375 		"/>
	</g>
</pattern>
<g>
	<defs>
		<rect id="SVGID_1_" x="0.3" y="0" width="595.3" height="841.9"/>
	</defs>
	<clipPath id="SVGID_2_">
		<use xlink:href="#SVGID_1_"  overflow="visible"/>
	</clipPath>
	<pattern  id="SVGID_3_" xlink:href="#Unnamed_Pattern" patternTransform="matrix(0.5 0 0 -0.5 -3900.927 -5356.4346)">
	</pattern>
	<rect x="0.3" y="0" clip-path="url(#SVGID_2_)" fill="url(#SVGID_3_)" width="595.3" height="841.9"/>
</g>
<rect y="0" opacity="0.1" width="595.5" height="180.1"/>
<g>
	<defs>
		<rect id="SVGID_4_" x="456.4" y="763.3" width="99.8" height="38.9"/>
	</defs>
	<clipPath id="SVGID_5_">
		<use xlink:href="#SVGID_4_"  overflow="visible"/>
	</clipPath>
	<g clip-path="url(#SVGID_5_)">
		<defs>
			<rect id="SVGID_6_" x="456.4" y="763.3" width="99.8" height="38.9"/>
		</defs>
		<clipPath id="SVGID_7_">
			<use xlink:href="#SVGID_6_"  overflow="visible"/>
		</clipPath>
		<path clip-path="url(#SVGID_7_)" d="M485.4,798.5c2.5,0,3.9-1.7,3.9-4v-11.9h5.3v12.2c-0.1,5.4-4.3,7.5-9.2,7.5s-9.1-2.1-9.2-7.5
			v-12.2h5.3v11.9C481.5,796.8,482.9,798.5,485.4,798.5"/>
		<polygon clip-path="url(#SVGID_7_)" points="462.3,801.8 467.7,801.8 467.7,786.3 473.6,786.3 473.6,782.6 456.4,782.6 
			456.4,786.3 462.3,786.3 		"/>
		<path clip-path="url(#SVGID_7_)" d="M475.2,773.2c-1.3,0.4-2.6,0.1-2.6-1.7c0-2.7,6.2-4.9,7.1-7.2c0.2-0.6,0.2-1.1,0-1
			c-0.2,0,0,0.3-0.5,0.7c-2.6,2.6-6.9,2.6-10.2,4.1c-2.2,1-8.5,4-7.1,10.7c0.1,0.3,0.3,1.4,0.5,1.4c0.2,0,0.2-0.6,0.2-1.4
			c0-4,4.7-5.1,6.2-7.7c0.2-0.3,0.5-0.7,0.6-0.5c0,0.1,0,0.2,0,0.5c-0.5,2.1-2.7,3.5-2.1,5c0.8,2,3.2,0.5,3.9-0.8
			c0.2-0.4,0.3-0.6,0.4-0.5c0.1,0,0.1,0.4,0,0.8c-0.4,2.3-0.9,3.6-2.6,4.9c-0.5,0.4-1.4,0.5-1.3,0.8c0,0.1,0.4,0.1,0.7,0
			c4.5-0.3,8.2-5.6,9.2-9c0.1-0.2,0.1-0.5,0-0.6c-0.1-0.1-0.3,0.1-0.5,0.3C476.5,772.5,475.8,773,475.2,773.2"/>
		<path clip-path="url(#SVGID_7_)" d="M520.7,793.8c0-2.1,1.3-4,3.4-4c2.5,0,3.4,1.7,3.4,4H520.7z M530.2,795.6v-1.3
			c0-3.7-2.1-6.3-5.9-6.3c-4.2,0-6.2,3.3-6.2,7.2c0,3.9,1.7,7,6,7c3.2,0,5.5-1.5,5.9-4.6h-2.7c-0.3,1.9-1.3,2.7-3.3,2.7
			c-2.6,0-3.4-2.3-3.4-4.8H530.2z"/>
		<rect x="533.2" y="782.6" clip-path="url(#SVGID_7_)" width="2.5" height="19.2"/>
		<path clip-path="url(#SVGID_7_)" d="M543.7,801.8v-11.6h3.1v-1.8h-3.1v-2.2c0-1.5,0.7-1.8,2.2-1.8c0.4,0,0.9,0.1,1.3,0.1v-2.1
			c-0.6-0.1-1.2-0.3-1.8-0.3c-2.4,0-4.2,1.2-4.2,3.8v2.5h-2.6v1.8h2.6v11.6H543.7z"/>
		<path clip-path="url(#SVGID_7_)" d="M548.3,788.4v1.8h2.3v8.5c0,1.8,0,3.5,3.8,3.5c0.6,0,1.1-0.1,1.7-0.2v-1.9
			c-0.4,0.1-0.9,0.2-1.3,0.2c-0.9,0-1.7-0.5-1.7-1.4v-8.7h3.1v-1.8h-3.1v-3.7l-2.5,0.8v2.9L548.3,788.4z"/>
		<path clip-path="url(#SVGID_7_)" d="M499.9,801.8h6.6c8.2,0,9.1-7,9.1-9.6c0-2.7-0.9-9.6-9.1-9.6h-6.6V801.8z M502.6,784.8h3.9
			c4.4,0,6.3,3.4,6.3,7.3c0,4-1.8,7.3-6.3,7.3h-3.9V784.8z"/>
	</g>
</g>
<g>
	<path d="M54.2,45H36.5v-1.4h36.9V45H55.7v49.8h-1.4V45z"/>
	<path d="M78.3,43.6h1.4v32.1c0,1.8,0.1,3.4,0.2,4.8c0.1,1.4,0.3,2.6,0.6,3.7c0.3,1.1,0.6,2.1,1,3s1,1.7,1.6,2.5
		c1.3,1.7,3.1,2.9,5.3,3.7c2.2,0.8,4.7,1.2,7.6,1.2s5.4-0.4,7.6-1.2c2.2-0.8,3.9-2,5.3-3.7c0.6-0.8,1.1-1.6,1.6-2.5
		c0.4-0.9,0.8-1.9,1-3c0.3-1.1,0.5-2.3,0.6-3.7c0.1-1.4,0.2-3,0.2-4.8V43.6h1.4v32.1c0,2-0.1,3.7-0.2,5.2c-0.1,1.5-0.4,2.8-0.6,4
		c-0.3,1.2-0.7,2.2-1.1,3.1c-0.5,0.9-1,1.8-1.7,2.6c-1.5,1.9-3.5,3.3-5.8,4.2c-2.3,0.9-5.1,1.3-8.2,1.3s-5.9-0.4-8.2-1.3
		c-2.3-0.9-4.2-2.2-5.8-4.2c-0.7-0.8-1.2-1.7-1.7-2.6c-0.5-0.9-0.8-1.9-1.1-3.1c-0.3-1.2-0.5-2.5-0.6-4c-0.1-1.5-0.2-3.2-0.2-5.2
		V43.6z"/>
	<path d="M145,43.6h14.5c3,0,5.4,0.2,7.4,0.6c1.9,0.4,3.8,1.1,5.6,2.1c1.5,0.9,2.8,1.9,4.1,3.3c1.2,1.3,2.3,2.9,3.3,4.8
		c0.9,1.9,1.7,4,2.2,6.5c0.5,2.5,0.8,5.3,0.8,8.4c0,5.2-0.8,9.6-2.5,13c-1.7,3.5-3.9,6.2-6.7,8.2c-2.2,1.5-4.5,2.6-7,3.3
		c-2.5,0.7-5.4,1-8.7,1H145V43.6z M157.8,93.4c3.3,0,6.1-0.3,8.4-1c2.4-0.7,4.5-1.7,6.4-3.1c2.6-2,4.7-4.6,6.2-7.9s2.4-7.3,2.4-12.1
		c0-3-0.2-5.7-0.7-8c-0.5-2.3-1.1-4.4-2-6.1c-0.8-1.7-1.8-3.2-3-4.4c-1.2-1.2-2.5-2.2-3.8-3c-1.6-0.9-3.4-1.6-5.2-1.9
		c-1.9-0.4-4.2-0.6-7-0.6h-13.1v48.3H157.8z"/>
	<path d="M219.2,83.5c-0.6,2.2-1.5,4-2.5,5.5c-1.1,1.5-2.3,2.8-3.6,3.8c-1.4,1-2.9,1.7-4.5,2.2c-1.6,0.5-3.3,0.7-5,0.7
		c-2.6,0-4.9-0.5-6.9-1.6c-2-1.1-3.6-2.5-4.9-4.2c-1.3-1.8-2.3-3.8-2.9-6.1c-0.6-2.3-1-4.7-1-7.3c0-2.5,0.3-5,1-7.3
		c0.6-2.3,1.6-4.4,2.9-6.2c1.3-1.8,2.9-3.2,4.9-4.3c2-1.1,4.3-1.6,7-1.6c2.6,0,4.9,0.5,6.9,1.6c2,1.1,3.6,2.5,4.9,4.3
		s2.3,3.9,2.9,6.2c0.6,2.3,1,4.8,1,7.3h-30c0,2.3,0.3,4.6,0.9,6.7c0.6,2.2,1.4,4.1,2.6,5.7c1.2,1.6,2.7,3,4.4,3.9
		c1.8,1,3.9,1.5,6.3,1.5c1.9,0,3.6-0.3,5.2-0.9c1.5-0.6,2.9-1.4,4.1-2.3c1.2-1,2.2-2.1,3-3.5c0.8-1.3,1.5-2.8,1.9-4.4L219.2,83.5z
		 M217.9,75c-0.1-2.2-0.5-4.2-1.1-6.2c-0.6-2-1.5-3.8-2.7-5.3c-1.2-1.5-2.6-2.7-4.4-3.6c-1.7-0.9-3.8-1.4-6.1-1.4
		c-2.3,0-4.4,0.5-6.1,1.4c-1.7,0.9-3.2,2.1-4.4,3.6c-1.2,1.5-2.1,3.3-2.7,5.3c-0.6,2-1,4.1-1.1,6.2H217.9z"/>
	<path d="M225.4,43.6h1.4v51.2h-1.4V43.6z"/>
	<path d="M237.8,59.4h-6.3V58h6.3v-6.1c0-1.8,0.1-3.3,0.4-4.4c0.3-1.1,0.9-2,1.8-2.7c1.4-1.1,3.4-1.7,6.1-1.7c0.8,0,1.5,0.1,2.3,0.2
		c0.7,0.1,1.4,0.3,1.9,0.4L250,45c-0.8-0.2-1.5-0.4-2.1-0.5c-0.6-0.1-1.3-0.1-1.8-0.1c-2.3,0-4,0.4-5,1.3c-0.8,0.6-1.3,1.4-1.5,2.3
		c-0.2,0.9-0.3,2.2-0.3,4V58h9.4v1.4h-9.4v35.4h-1.4V59.4z"/>
	<path d="M256.1,59.4h-6.3V58h6.3V47.1l1.4-0.7V58h11v1.4h-11v27c0,1.8,0.1,3.1,0.3,4c0.2,0.9,0.7,1.7,1.5,2.3
		c1.1,0.9,2.7,1.3,5,1.3c0.6,0,1.2,0,1.8-0.1c0.6-0.1,1.4-0.2,2.1-0.5l0.3,1.4c-0.5,0.1-1.2,0.3-1.9,0.4c-0.7,0.1-1.5,0.2-2.3,0.2
		c-2.7,0-4.7-0.6-6.1-1.7c-0.9-0.7-1.5-1.6-1.8-2.7c-0.3-1.1-0.4-2.6-0.4-4.4V59.4z"/>
	<path d="M297.5,43.6h1.4v49.8H328v1.4h-30.5V43.6z"/>
	<path d="M333.8,43.6h1.4v7.2h-1.4V43.6z M333.8,57.6h1.4v37.2h-1.4V57.6z"/>
	<path d="M344,97.3c0.1,3.5,1.2,6.1,3.4,7.7c1.2,1,2.7,1.6,4.2,2c1.6,0.4,3.3,0.6,5.3,0.6c3.3,0,6.1-0.6,8.4-1.9
		c2.2-1.2,3.8-3,4.8-5.2c1.1-2.3,1.6-6.1,1.6-11.3v-5.5h-0.1c-0.7,3.4-2.3,6.1-4.8,8c-2.5,2-5.6,2.9-9.5,2.9c-2.5,0-4.8-0.5-6.7-1.5
		c-2-1-3.6-2.4-5-4.2c-1.4-1.7-2.4-3.8-3.1-6.1c-0.7-2.3-1-4.7-1-7.2c0-2.7,0.4-5.2,1.1-7.5c0.8-2.3,1.8-4.3,3.2-5.9
		c1.4-1.7,3.1-2.9,5-3.9c2-0.9,4.1-1.4,6.5-1.4c3.9,0,7,1,9.4,3.1c2.4,2.1,4,4.7,4.8,7.8h0.1V58h1.4v31.3c0,2.9-0.1,5.3-0.4,7.2
		s-0.7,3.5-1.3,4.8c-1.1,2.4-2.9,4.4-5.3,5.7c-2.5,1.4-5.5,2.1-9.1,2.1c-4.4,0-7.9-1-10.5-3c-2.7-2-4-4.9-3.9-9L344,97.3z
		 M357.4,93.4c4.4,0,8-1.5,10.5-4.6c2.6-3,3.9-7.4,3.9-13c0-2.3-0.3-4.6-0.9-6.6c-0.6-2.1-1.5-3.9-2.7-5.5c-1.2-1.6-2.7-2.8-4.5-3.8
		c-1.8-0.9-3.9-1.4-6.2-1.4c-2.3,0-4.4,0.5-6.2,1.4c-1.8,0.9-3.3,2.2-4.6,3.8c-1.2,1.6-2.1,3.4-2.8,5.5c-0.6,2.1-0.9,4.3-0.9,6.6
		c0,2.1,0.3,4.2,0.8,6.3s1.4,4,2.6,5.6c1.2,1.7,2.7,3,4.5,4.1C352.7,92.9,354.8,93.4,357.4,93.4z"/>
	<path d="M381.8,43.6h1.4v23.1h0.1c0.3-1.3,0.9-2.5,1.7-3.7s1.8-2.2,2.9-3.1c1.2-0.9,2.5-1.6,4.1-2.1c1.5-0.5,3.2-0.8,5-0.8
		c2.2,0,4.1,0.3,5.8,1c1.7,0.6,3.1,1.6,4.2,2.8c1,1.1,1.6,2.2,2,3.5s0.6,3.1,0.6,5.4v25h-1.4V69.4c0-1.9-0.2-3.5-0.6-4.6
		c-0.4-1.2-1-2.2-1.7-3c-1.1-1.2-2.3-2-3.9-2.5c-1.5-0.5-3.2-0.8-5-0.8c-2.2,0-4.2,0.4-5.9,1.3c-1.7,0.8-3.1,2-4.3,3.4
		c-1.2,1.4-2.1,3-2.7,4.9c-0.6,1.9-0.9,3.8-0.9,5.9v20.9h-1.4V43.6z"/>
	<path d="M421.3,59.4H415V58h6.3V47.1l1.4-0.7V58h11v1.4h-11v27c0,1.8,0.1,3.1,0.3,4c0.2,0.9,0.7,1.7,1.5,2.3c1.1,0.9,2.7,1.3,5,1.3
		c0.6,0,1.2,0,1.8-0.1c0.6-0.1,1.4-0.2,2.1-0.5l0.3,1.4c-0.5,0.1-1.2,0.3-1.9,0.4c-0.7,0.1-1.5,0.2-2.3,0.2c-2.7,0-4.7-0.6-6.1-1.7
		c-0.9-0.7-1.5-1.6-1.8-2.7c-0.3-1.1-0.4-2.6-0.4-4.4V59.4z"/>
</g>
<g>
	<path d="M39.8,146l3.8-10h1.4l4.1,10h-1.5l-1.2-3h-4.2l-1.1,3H39.8z M42.7,141.9h3.4l-1-2.8c-0.3-0.8-0.6-1.5-0.7-2.1
		c-0.1,0.6-0.3,1.3-0.5,1.9L42.7,141.9z"/>
	<path d="M50.1,146v-7.2h1.1v1c0.5-0.8,1.3-1.2,2.3-1.2c0.4,0,0.8,0.1,1.2,0.2c0.4,0.2,0.6,0.4,0.8,0.6c0.2,0.3,0.3,0.6,0.4,0.9
		c0,0.2,0.1,0.6,0.1,1.2v4.4h-1.2v-4.4c0-0.5,0-0.9-0.1-1.1c-0.1-0.2-0.3-0.4-0.5-0.6c-0.2-0.1-0.5-0.2-0.9-0.2
		c-0.5,0-1,0.2-1.4,0.5c-0.4,0.3-0.6,1-0.6,1.9v4H50.1z"/>
	<path d="M62.7,146v-10h7.2v1.2H64v3.1h5.5v1.2H64v3.4h6.1v1.2H62.7z"/>
	<path d="M76.5,145.1c-0.5,0.4-0.9,0.7-1.3,0.8c-0.4,0.2-0.9,0.2-1.4,0.2c-0.8,0-1.4-0.2-1.8-0.6c-0.4-0.4-0.6-0.9-0.6-1.5
		c0-0.4,0.1-0.7,0.2-1c0.2-0.3,0.4-0.5,0.6-0.7c0.3-0.2,0.6-0.3,0.9-0.4c0.2-0.1,0.6-0.1,1.1-0.2c1-0.1,1.7-0.3,2.2-0.4
		c0-0.2,0-0.3,0-0.3c0-0.5-0.1-0.9-0.3-1.1c-0.3-0.3-0.8-0.4-1.4-0.4c-0.6,0-1,0.1-1.3,0.3c-0.3,0.2-0.5,0.6-0.6,1.1l-1.2-0.2
		c0.1-0.5,0.3-0.9,0.5-1.2c0.3-0.3,0.6-0.6,1.1-0.7s1-0.3,1.6-0.3c0.6,0,1.1,0.1,1.5,0.2c0.4,0.1,0.7,0.3,0.9,0.5
		c0.2,0.2,0.3,0.5,0.4,0.8c0,0.2,0.1,0.6,0.1,1.1v1.6c0,1.1,0,1.9,0.1,2.2s0.2,0.6,0.3,0.9h-1.3C76.6,145.7,76.5,145.4,76.5,145.1z
		 M76.4,142.4c-0.4,0.2-1.1,0.3-2,0.5c-0.5,0.1-0.9,0.2-1.1,0.2s-0.4,0.2-0.5,0.4c-0.1,0.2-0.2,0.4-0.2,0.6c0,0.3,0.1,0.6,0.4,0.8
		s0.6,0.3,1.1,0.3c0.5,0,0.9-0.1,1.3-0.3c0.4-0.2,0.6-0.5,0.8-0.8c0.1-0.3,0.2-0.7,0.2-1.2V142.4z"/>
	<path d="M79,143.8l1.2-0.2c0.1,0.5,0.3,0.9,0.6,1.1s0.7,0.4,1.3,0.4c0.6,0,1-0.1,1.3-0.3s0.4-0.5,0.4-0.8c0-0.3-0.1-0.5-0.4-0.7
		c-0.2-0.1-0.6-0.2-1.3-0.4c-0.9-0.2-1.5-0.4-1.9-0.6c-0.3-0.2-0.6-0.4-0.8-0.7s-0.3-0.6-0.3-1c0-0.3,0.1-0.6,0.2-0.9
		c0.1-0.3,0.3-0.5,0.6-0.7c0.2-0.1,0.5-0.3,0.8-0.4s0.7-0.1,1.1-0.1c0.6,0,1.1,0.1,1.5,0.2c0.4,0.2,0.7,0.4,1,0.7
		c0.2,0.3,0.3,0.7,0.4,1.1l-1.2,0.2c-0.1-0.4-0.2-0.7-0.5-0.9c-0.3-0.2-0.6-0.3-1.1-0.3c-0.6,0-1,0.1-1.2,0.3
		c-0.2,0.2-0.4,0.4-0.4,0.7c0,0.2,0,0.3,0.1,0.4c0.1,0.1,0.3,0.2,0.5,0.3c0.1,0,0.5,0.1,1.1,0.3c0.9,0.2,1.5,0.4,1.8,0.6
		s0.6,0.4,0.8,0.6c0.2,0.3,0.3,0.6,0.3,1c0,0.4-0.1,0.8-0.4,1.2c-0.2,0.4-0.6,0.6-1,0.8c-0.4,0.2-1,0.3-1.5,0.3
		c-0.9,0-1.7-0.2-2.1-0.6S79.2,144.6,79,143.8z"/>
	<path d="M86.4,148.8l-0.1-1.2c0.3,0.1,0.5,0.1,0.7,0.1c0.3,0,0.5,0,0.7-0.1s0.3-0.2,0.4-0.4c0.1-0.1,0.2-0.4,0.4-0.9
		c0-0.1,0.1-0.2,0.1-0.3l-2.7-7.2h1.3l1.5,4.2c0.2,0.5,0.4,1.1,0.5,1.7c0.1-0.6,0.3-1.1,0.5-1.6l1.5-4.2h1.2l-2.8,7.4
		c-0.3,0.8-0.5,1.3-0.7,1.6c-0.2,0.4-0.5,0.7-0.7,0.9c-0.3,0.2-0.6,0.3-1,0.3C87,148.9,86.7,148.9,86.4,148.8z"/>
	<path d="M100.8,144.9l0.2,1.1c-0.3,0.1-0.7,0.1-0.9,0.1c-0.4,0-0.8-0.1-1-0.2s-0.4-0.3-0.5-0.6c-0.1-0.2-0.1-0.7-0.1-1.4v-4.2h-0.9
		v-1h0.9V137l1.2-0.7v2.5h1.2v1h-1.2v4.2c0,0.3,0,0.6,0.1,0.7c0,0.1,0.1,0.2,0.2,0.2c0.1,0.1,0.2,0.1,0.4,0.1
		C100.4,144.9,100.6,144.9,100.8,144.9z"/>
	<path d="M101.5,142.4c0-1.3,0.4-2.3,1.1-3c0.6-0.5,1.4-0.8,2.3-0.8c1,0,1.8,0.3,2.4,1c0.6,0.7,0.9,1.6,0.9,2.7
		c0,0.9-0.1,1.7-0.4,2.2c-0.3,0.5-0.7,0.9-1.2,1.2c-0.5,0.3-1.1,0.4-1.7,0.4c-1,0-1.8-0.3-2.5-1
		C101.8,144.5,101.5,143.6,101.5,142.4z M102.8,142.4c0,0.9,0.2,1.6,0.6,2.1c0.4,0.5,0.9,0.7,1.5,0.7c0.6,0,1.1-0.2,1.5-0.7
		c0.4-0.5,0.6-1.2,0.6-2.1c0-0.9-0.2-1.6-0.6-2c-0.4-0.5-0.9-0.7-1.5-0.7c-0.6,0-1.1,0.2-1.5,0.7S102.8,141.4,102.8,142.4z"/>
	<path d="M121.1,136h1.3v5.8c0,1-0.1,1.8-0.3,2.4s-0.6,1.1-1.2,1.4c-0.6,0.4-1.4,0.6-2.3,0.6c-0.9,0-1.7-0.2-2.3-0.5s-1-0.8-1.3-1.4
		c-0.3-0.6-0.4-1.4-0.4-2.5V136h1.3v5.8c0,0.9,0.1,1.5,0.2,1.9c0.2,0.4,0.4,0.7,0.8,1s0.9,0.3,1.4,0.3c1,0,1.7-0.2,2.1-0.7
		c0.4-0.4,0.6-1.3,0.6-2.5V136z"/>
	<path d="M124,143.8l1.2-0.2c0.1,0.5,0.3,0.9,0.6,1.1s0.7,0.4,1.3,0.4c0.6,0,1-0.1,1.3-0.3s0.4-0.5,0.4-0.8c0-0.3-0.1-0.5-0.4-0.7
		c-0.2-0.1-0.6-0.2-1.3-0.4c-0.9-0.2-1.5-0.4-1.9-0.6c-0.3-0.2-0.6-0.4-0.8-0.7s-0.3-0.6-0.3-1c0-0.3,0.1-0.6,0.2-0.9
		c0.1-0.3,0.3-0.5,0.6-0.7c0.2-0.1,0.5-0.3,0.8-0.4s0.7-0.1,1.1-0.1c0.6,0,1.1,0.1,1.5,0.2c0.4,0.2,0.7,0.4,1,0.7
		c0.2,0.3,0.3,0.7,0.4,1.1l-1.2,0.2c-0.1-0.4-0.2-0.7-0.5-0.9c-0.3-0.2-0.6-0.3-1.1-0.3c-0.6,0-1,0.1-1.2,0.3
		c-0.2,0.2-0.4,0.4-0.4,0.7c0,0.2,0,0.3,0.1,0.4c0.1,0.1,0.3,0.2,0.5,0.3c0.1,0,0.5,0.1,1.1,0.3c0.9,0.2,1.5,0.4,1.8,0.6
		s0.6,0.4,0.8,0.6c0.2,0.3,0.3,0.6,0.3,1c0,0.4-0.1,0.8-0.4,1.2c-0.2,0.4-0.6,0.6-1,0.8c-0.4,0.2-1,0.3-1.5,0.3
		c-0.9,0-1.7-0.2-2.1-0.6S124.1,144.6,124,143.8z"/>
	<path d="M136.4,143.7l1.3,0.2c-0.2,0.7-0.6,1.3-1.1,1.7c-0.5,0.4-1.2,0.6-2.1,0.6c-1.1,0-1.9-0.3-2.5-1s-0.9-1.6-0.9-2.7
		c0-1.2,0.3-2.2,0.9-2.8s1.4-1,2.4-1c1,0,1.8,0.3,2.4,1s0.9,1.6,0.9,2.8c0,0.1,0,0.2,0,0.3h-5.4c0,0.8,0.3,1.4,0.7,1.8
		c0.4,0.4,0.9,0.6,1.5,0.6c0.4,0,0.8-0.1,1.2-0.4C135.9,144.6,136.2,144.2,136.4,143.7z M132.3,141.7h4c-0.1-0.6-0.2-1.1-0.5-1.4
		c-0.4-0.5-0.9-0.7-1.5-0.7c-0.6,0-1,0.2-1.4,0.6C132.6,140.5,132.4,141,132.3,141.7z"/>
	<path d="M143.9,146v-10h1.3v8.8h4.9v1.2H143.9z"/>
</g>
<g>
	<path d="M145.7,143l2.7-7h1l2.9,7h-1.1l-0.8-2.1h-2.9l-0.8,2.1H145.7z M147.7,140.1h2.4l-0.7-1.9c-0.2-0.6-0.4-1.1-0.5-1.4
		c-0.1,0.4-0.2,0.9-0.4,1.3L147.7,140.1z"/>
</g>
<g>
	<path d="M153.7,146v-8.8h-3.3V136h7.9v1.2H155v8.8H153.7z"/>
</g>
<g>
	<path d="M157.4,149.6v-10h7.2v1.2h-5.9v3.1h5.5v1.2h-5.5v3.4h6.1v1.2H157.4z"/>
</g>
<g>
	<path d="M163.9,146l3.9-5.2l-3.4-4.8h1.6l1.8,2.6c0.4,0.5,0.6,0.9,0.8,1.2c0.2-0.4,0.5-0.7,0.8-1.1l2-2.6h1.4l-3.5,4.7l3.8,5.3
		h-1.6l-2.5-3.6c-0.1-0.2-0.3-0.4-0.4-0.7c-0.2,0.4-0.4,0.6-0.5,0.7l-2.5,3.5H163.9z"/>
	<path d="M181.4,146v-8.8h-3.3V136h7.9v1.2h-3.3v8.8H181.4z"/>
	<path d="M190.7,143.7l1.3,0.2c-0.2,0.7-0.6,1.3-1.1,1.7c-0.5,0.4-1.2,0.6-2.1,0.6c-1.1,0-1.9-0.3-2.5-1s-0.9-1.6-0.9-2.7
		c0-1.2,0.3-2.2,0.9-2.8s1.4-1,2.4-1c1,0,1.8,0.3,2.4,1s0.9,1.6,0.9,2.8c0,0.1,0,0.2,0,0.3h-5.4c0,0.8,0.3,1.4,0.7,1.8
		c0.4,0.4,0.9,0.6,1.5,0.6c0.4,0,0.8-0.1,1.2-0.4C190.2,144.6,190.5,144.2,190.7,143.7z M186.7,141.7h4c-0.1-0.6-0.2-1.1-0.5-1.4
		c-0.4-0.5-0.9-0.7-1.5-0.7c-0.6,0-1,0.2-1.4,0.6C186.9,140.5,186.7,141,186.7,141.7z"/>
	<path d="M193.5,146v-7.2h1.1v1c0.2-0.4,0.5-0.6,0.9-0.9c0.4-0.2,0.8-0.3,1.3-0.3c0.5,0,1,0.1,1.3,0.3c0.3,0.2,0.6,0.5,0.7,0.9
		c0.6-0.8,1.3-1.3,2.2-1.3c0.7,0,1.3,0.2,1.7,0.6c0.4,0.4,0.6,1,0.6,1.8v5h-1.2v-4.6c0-0.5,0-0.8-0.1-1.1s-0.2-0.4-0.4-0.5
		c-0.2-0.1-0.5-0.2-0.7-0.2c-0.5,0-0.9,0.2-1.3,0.5c-0.3,0.3-0.5,0.9-0.5,1.6v4.2h-1.2v-4.7c0-0.5-0.1-1-0.3-1.2s-0.5-0.4-1-0.4
		c-0.3,0-0.7,0.1-1,0.3s-0.5,0.4-0.6,0.8s-0.2,0.9-0.2,1.5v3.8H193.5z"/>
	<path d="M205.1,148.8v-10h1.1v0.9c0.3-0.4,0.6-0.6,0.9-0.8c0.3-0.2,0.7-0.3,1.2-0.3c0.6,0,1.2,0.2,1.6,0.5c0.5,0.3,0.8,0.8,1.1,1.3
		c0.2,0.6,0.4,1.2,0.4,1.9c0,0.7-0.1,1.4-0.4,2s-0.7,1-1.2,1.4c-0.5,0.3-1,0.5-1.6,0.5c-0.4,0-0.8-0.1-1.1-0.3
		c-0.3-0.2-0.6-0.4-0.8-0.7v3.5H205.1z M206.2,142.4c0,0.9,0.2,1.6,0.6,2.1s0.8,0.7,1.4,0.7c0.5,0,1-0.2,1.4-0.7
		c0.4-0.5,0.6-1.2,0.6-2.1c0-0.9-0.2-1.6-0.6-2.1c-0.4-0.5-0.8-0.7-1.4-0.7c-0.5,0-1,0.2-1.4,0.7
		C206.4,140.8,206.2,141.5,206.2,142.4z"/>
	<path d="M212.8,146v-10h1.2v10H212.8z"/>
	<path d="M220.7,145.1c-0.5,0.4-0.9,0.7-1.3,0.8c-0.4,0.2-0.9,0.2-1.4,0.2c-0.8,0-1.4-0.2-1.8-0.6c-0.4-0.4-0.6-0.9-0.6-1.5
		c0-0.4,0.1-0.7,0.2-1c0.2-0.3,0.4-0.5,0.6-0.7c0.3-0.2,0.6-0.3,0.9-0.4c0.2-0.1,0.6-0.1,1.1-0.2c1-0.1,1.7-0.3,2.2-0.4
		c0-0.2,0-0.3,0-0.3c0-0.5-0.1-0.9-0.3-1.1c-0.3-0.3-0.8-0.4-1.4-0.4c-0.6,0-1,0.1-1.3,0.3c-0.3,0.2-0.5,0.6-0.6,1.1l-1.2-0.2
		c0.1-0.5,0.3-0.9,0.5-1.2c0.3-0.3,0.6-0.6,1.1-0.7s1-0.3,1.6-0.3c0.6,0,1.1,0.1,1.5,0.2c0.4,0.1,0.7,0.3,0.9,0.5
		c0.2,0.2,0.3,0.5,0.4,0.8c0,0.2,0.1,0.6,0.1,1.1v1.6c0,1.1,0,1.9,0.1,2.2s0.2,0.6,0.3,0.9h-1.3
		C220.8,145.7,220.7,145.4,220.7,145.1z M220.6,142.4c-0.4,0.2-1.1,0.3-2,0.5c-0.5,0.1-0.9,0.2-1.1,0.2s-0.4,0.2-0.5,0.4
		c-0.1,0.2-0.2,0.4-0.2,0.6c0,0.3,0.1,0.6,0.4,0.8s0.6,0.3,1.1,0.3c0.5,0,0.9-0.1,1.3-0.3c0.4-0.2,0.6-0.5,0.8-0.8
		c0.1-0.3,0.2-0.7,0.2-1.2V142.4z"/>
	<path d="M226.4,144.9l0.2,1.1c-0.3,0.1-0.7,0.1-0.9,0.1c-0.4,0-0.8-0.1-1-0.2s-0.4-0.3-0.5-0.6c-0.1-0.2-0.1-0.7-0.1-1.4v-4.2H223
		v-1h0.9V137l1.2-0.7v2.5h1.2v1h-1.2v4.2c0,0.3,0,0.6,0.1,0.7c0,0.1,0.1,0.2,0.2,0.2c0.1,0.1,0.2,0.1,0.4,0.1
		C226,144.9,226.2,144.9,226.4,144.9z"/>
	<path d="M232.5,143.7l1.3,0.2c-0.2,0.7-0.6,1.3-1.1,1.7c-0.5,0.4-1.2,0.6-2.1,0.6c-1.1,0-1.9-0.3-2.5-1s-0.9-1.6-0.9-2.7
		c0-1.2,0.3-2.2,0.9-2.8s1.4-1,2.4-1c1,0,1.8,0.3,2.4,1s0.9,1.6,0.9,2.8c0,0.1,0,0.2,0,0.3h-5.4c0,0.8,0.3,1.4,0.7,1.8
		c0.4,0.4,0.9,0.6,1.5,0.6c0.4,0,0.8-0.1,1.2-0.4C232.1,144.6,232.4,144.2,232.5,143.7z M228.5,141.7h4c-0.1-0.6-0.2-1.1-0.5-1.4
		c-0.4-0.5-0.9-0.7-1.5-0.7c-0.6,0-1,0.2-1.4,0.6C228.8,140.5,228.6,141,228.5,141.7z"/>
</g>
<g>
	<path fill="#00AEEF" d="M40.8,165.6v-8.6h5.8v1H42v2.7h4v1h-4v3.9H40.8z"/>
	<path fill="#00AEEF" d="M52.2,163.6l1.1,0.1c-0.2,0.6-0.5,1.1-1,1.5c-0.5,0.4-1.1,0.5-1.8,0.5c-0.9,0-1.6-0.3-2.2-0.8
		c-0.5-0.6-0.8-1.3-0.8-2.3c0-1,0.3-1.9,0.8-2.4c0.5-0.6,1.2-0.9,2.1-0.9c0.8,0,1.5,0.3,2,0.8s0.8,1.4,0.8,2.4c0,0.1,0,0.2,0,0.3
		h-4.6c0,0.7,0.2,1.2,0.6,1.6c0.3,0.4,0.8,0.5,1.3,0.5c0.4,0,0.7-0.1,1-0.3S52,164.1,52.2,163.6z M48.7,161.9h3.5
		c0-0.5-0.2-0.9-0.4-1.2c-0.3-0.4-0.8-0.6-1.3-0.6c-0.5,0-0.9,0.2-1.2,0.5C49,161,48.8,161.4,48.7,161.9z"/>
	<path fill="#00AEEF" d="M55.6,165.6h-1v-8.6h1.1v3.1c0.4-0.6,1-0.8,1.7-0.8c0.4,0,0.7,0.1,1.1,0.2c0.3,0.2,0.6,0.4,0.8,0.6
		s0.4,0.6,0.5,1c0.1,0.4,0.2,0.8,0.2,1.3c0,1.1-0.3,1.9-0.8,2.5s-1.2,0.9-1.9,0.9c-0.7,0-1.3-0.3-1.7-0.9V165.6z M55.6,162.5
		c0,0.7,0.1,1.3,0.3,1.6c0.3,0.5,0.8,0.8,1.3,0.8c0.5,0,0.9-0.2,1.2-0.6c0.3-0.4,0.5-1,0.5-1.8c0-0.8-0.2-1.4-0.5-1.8
		c-0.3-0.4-0.7-0.6-1.2-0.6c-0.5,0-0.9,0.2-1.2,0.6C55.7,161.1,55.6,161.7,55.6,162.5z"/>
	<path fill="#00AEEF" d="M61.2,165.6v-6.2h0.9v0.9c0.2-0.4,0.5-0.7,0.7-0.9c0.2-0.1,0.4-0.2,0.7-0.2c0.4,0,0.7,0.1,1.1,0.3l-0.4,1
		c-0.3-0.2-0.5-0.2-0.8-0.2c-0.2,0-0.4,0.1-0.6,0.2c-0.2,0.1-0.3,0.3-0.4,0.6c-0.1,0.4-0.2,0.8-0.2,1.2v3.2H61.2z"/>
	<path fill="#00AEEF" d="M69.3,165.6v-0.9c-0.5,0.7-1.1,1.1-2,1.1c-0.4,0-0.7-0.1-1-0.2c-0.3-0.1-0.6-0.3-0.7-0.5
		c-0.2-0.2-0.3-0.5-0.3-0.8c0-0.2-0.1-0.5-0.1-1v-3.8h1.1v3.4c0,0.5,0,0.9,0.1,1.1c0.1,0.3,0.2,0.5,0.4,0.7c0.2,0.2,0.5,0.2,0.8,0.2
		c0.3,0,0.6-0.1,0.9-0.2s0.5-0.4,0.6-0.7c0.1-0.3,0.2-0.7,0.2-1.2v-3.3h1.1v6.2H69.3z"/>
	<path fill="#00AEEF" d="M75.9,164.9c-0.4,0.3-0.8,0.6-1.1,0.7c-0.4,0.1-0.7,0.2-1.2,0.2c-0.7,0-1.2-0.2-1.6-0.5
		c-0.4-0.3-0.5-0.8-0.5-1.3c0-0.3,0.1-0.6,0.2-0.8c0.1-0.3,0.3-0.5,0.5-0.6c0.2-0.2,0.5-0.3,0.8-0.3c0.2-0.1,0.5-0.1,0.9-0.2
		c0.8-0.1,1.5-0.2,1.9-0.4c0-0.1,0-0.2,0-0.3c0-0.4-0.1-0.7-0.3-0.9c-0.3-0.2-0.7-0.4-1.2-0.4c-0.5,0-0.9,0.1-1.1,0.3
		c-0.2,0.2-0.4,0.5-0.5,0.9l-1-0.1c0.1-0.4,0.2-0.8,0.5-1.1c0.2-0.3,0.5-0.5,0.9-0.6c0.4-0.1,0.9-0.2,1.4-0.2c0.5,0,1,0.1,1.3,0.2
		c0.3,0.1,0.6,0.3,0.7,0.5s0.3,0.4,0.3,0.7c0,0.2,0.1,0.5,0.1,1v1.4c0,1,0,1.6,0.1,1.9c0,0.3,0.1,0.5,0.3,0.7h-1.1
		C76,165.4,76,165.2,75.9,164.9z M75.8,162.5c-0.4,0.2-1,0.3-1.7,0.4c-0.4,0.1-0.7,0.1-0.9,0.2c-0.2,0.1-0.3,0.2-0.4,0.3
		c-0.1,0.2-0.1,0.3-0.1,0.5c0,0.3,0.1,0.5,0.3,0.7c0.2,0.2,0.5,0.3,0.9,0.3c0.4,0,0.8-0.1,1.1-0.3c0.3-0.2,0.5-0.4,0.7-0.7
		c0.1-0.2,0.2-0.6,0.2-1.1V162.5z"/>
	<path fill="#00AEEF" d="M78.5,165.6v-6.2h0.9v0.9c0.2-0.4,0.5-0.7,0.7-0.9c0.2-0.1,0.4-0.2,0.7-0.2c0.4,0,0.7,0.1,1.1,0.3l-0.4,1
		c-0.3-0.2-0.5-0.2-0.8-0.2c-0.2,0-0.4,0.1-0.6,0.2c-0.2,0.1-0.3,0.3-0.4,0.6c-0.1,0.4-0.2,0.8-0.2,1.2v3.2H78.5z"/>
	<path fill="#00AEEF" d="M82.5,168l-0.1-1c0.2,0.1,0.4,0.1,0.6,0.1c0.2,0,0.4,0,0.6-0.1c0.1-0.1,0.3-0.2,0.3-0.3
		c0.1-0.1,0.2-0.4,0.3-0.8c0-0.1,0.1-0.1,0.1-0.3l-2.4-6.2H83l1.3,3.6c0.2,0.5,0.3,0.9,0.4,1.4c0.1-0.5,0.3-1,0.4-1.4l1.3-3.6h1.1
		l-2.4,6.3c-0.3,0.7-0.4,1.1-0.6,1.4c-0.2,0.3-0.4,0.6-0.6,0.8c-0.2,0.2-0.5,0.2-0.9,0.2C82.9,168.1,82.7,168.1,82.5,168z"/>
	<path fill="#00AEEF" d="M97.7,164.6v1H92c0-0.3,0-0.5,0.1-0.7c0.1-0.4,0.4-0.8,0.7-1.1c0.3-0.4,0.8-0.8,1.4-1.3
		c0.9-0.8,1.6-1.4,1.9-1.8c0.3-0.4,0.5-0.9,0.5-1.3c0-0.4-0.1-0.8-0.4-1.1c-0.3-0.3-0.7-0.4-1.2-0.4c-0.5,0-0.9,0.2-1.2,0.5
		s-0.5,0.7-0.5,1.3l-1.1-0.1c0.1-0.8,0.4-1.4,0.8-1.8c0.5-0.4,1.1-0.6,1.9-0.6c0.8,0,1.5,0.2,1.9,0.7c0.5,0.5,0.7,1,0.7,1.7
		c0,0.3-0.1,0.7-0.2,1c-0.1,0.3-0.4,0.7-0.7,1c-0.3,0.4-0.9,0.9-1.6,1.5c-0.6,0.5-1,0.9-1.2,1.1c-0.2,0.2-0.3,0.4-0.4,0.6H97.7z"/>
	<path fill="#00AEEF" d="M98.8,161.4c0-1,0.1-1.8,0.3-2.4c0.2-0.6,0.5-1.1,0.9-1.4c0.4-0.3,0.9-0.5,1.5-0.5c0.5,0,0.9,0.1,1.2,0.3
		c0.3,0.2,0.6,0.5,0.9,0.8s0.4,0.8,0.5,1.3s0.2,1.2,0.2,2c0,1-0.1,1.8-0.3,2.4c-0.2,0.6-0.5,1.1-0.9,1.4c-0.4,0.3-0.9,0.5-1.6,0.5
		c-0.8,0-1.5-0.3-1.9-0.9C99.1,164.2,98.8,163,98.8,161.4z M99.9,161.4c0,1.4,0.2,2.3,0.5,2.8c0.3,0.5,0.7,0.7,1.2,0.7
		c0.5,0,0.9-0.2,1.2-0.7c0.3-0.5,0.5-1.4,0.5-2.8c0-1.4-0.2-2.3-0.5-2.8c-0.3-0.5-0.7-0.7-1.2-0.7c-0.5,0-0.9,0.2-1.2,0.6
		C100.1,159,99.9,160,99.9,161.4z"/>
</g>
<g>
	<path fill="#00AEEF" d="M107,160.7l0.1,0.6c-0.2,0-0.4,0.1-0.5,0.1c-0.3,0-0.5,0-0.6-0.1c-0.1-0.1-0.2-0.2-0.3-0.3
		c-0.1-0.1-0.1-0.4-0.1-0.8v-2.4h-0.5v-0.5h0.5v-1l0.7-0.4v1.4h0.7v0.5h-0.7v2.4c0,0.2,0,0.3,0,0.4c0,0.1,0.1,0.1,0.1,0.1
		c0.1,0,0.1,0.1,0.2,0.1C106.8,160.7,106.9,160.7,107,160.7z"/>
	<path fill="#00AEEF" d="M107.7,161.3v-5.7h0.7v2c0.3-0.4,0.7-0.6,1.2-0.6c0.3,0,0.6,0.1,0.8,0.2c0.2,0.1,0.4,0.3,0.5,0.5
		c0.1,0.2,0.1,0.5,0.1,0.9v2.6h-0.7v-2.6c0-0.4-0.1-0.6-0.2-0.8s-0.4-0.2-0.6-0.2c-0.2,0-0.4,0.1-0.6,0.2c-0.2,0.1-0.3,0.3-0.4,0.4
		c-0.1,0.2-0.1,0.4-0.1,0.8v2.3H107.7z"/>
</g>
<g>
	<path fill="#00AEEF" d="M113.2,165.6v-1.2h1.2v1.2c0,0.4-0.1,0.8-0.2,1.1c-0.2,0.3-0.4,0.5-0.7,0.6l-0.3-0.5
		c0.2-0.1,0.4-0.2,0.5-0.4c0.1-0.2,0.2-0.5,0.2-0.8H113.2z"/>
	<path fill="#00AEEF" d="M125.4,164.6v1h-5.7c0-0.3,0-0.5,0.1-0.7c0.1-0.4,0.4-0.8,0.7-1.1c0.3-0.4,0.8-0.8,1.4-1.3
		c0.9-0.8,1.6-1.4,1.9-1.8c0.3-0.4,0.5-0.9,0.5-1.3c0-0.4-0.1-0.8-0.4-1.1c-0.3-0.3-0.7-0.4-1.2-0.4c-0.5,0-0.9,0.2-1.2,0.5
		s-0.5,0.7-0.5,1.3l-1.1-0.1c0.1-0.8,0.4-1.4,0.8-1.8c0.5-0.4,1.1-0.6,1.9-0.6c0.8,0,1.5,0.2,1.9,0.7c0.5,0.5,0.7,1,0.7,1.7
		c0,0.3-0.1,0.7-0.2,1c-0.1,0.3-0.4,0.7-0.7,1c-0.3,0.4-0.9,0.9-1.6,1.5c-0.6,0.5-1,0.9-1.2,1.1c-0.2,0.2-0.3,0.4-0.4,0.6H125.4z"/>
	<path fill="#00AEEF" d="M126.6,161.4c0-1,0.1-1.8,0.3-2.4c0.2-0.6,0.5-1.1,0.9-1.4c0.4-0.3,0.9-0.5,1.5-0.5c0.5,0,0.9,0.1,1.2,0.3
		c0.3,0.2,0.6,0.5,0.9,0.8s0.4,0.8,0.5,1.3s0.2,1.2,0.2,2c0,1-0.1,1.8-0.3,2.4c-0.2,0.6-0.5,1.1-0.9,1.4c-0.4,0.3-0.9,0.5-1.6,0.5
		c-0.8,0-1.5-0.3-1.9-0.9C126.9,164.2,126.6,163,126.6,161.4z M127.7,161.4c0,1.4,0.2,2.3,0.5,2.8c0.3,0.5,0.7,0.7,1.2,0.7
		c0.5,0,0.9-0.2,1.2-0.7c0.3-0.5,0.5-1.4,0.5-2.8c0-1.4-0.2-2.3-0.5-2.8c-0.3-0.5-0.7-0.7-1.2-0.7c-0.5,0-0.9,0.2-1.2,0.6
		C127.8,159,127.7,160,127.7,161.4z"/>
	<path fill="#00AEEF" d="M138.7,164.6v1h-5.7c0-0.3,0-0.5,0.1-0.7c0.1-0.4,0.4-0.8,0.7-1.1c0.3-0.4,0.8-0.8,1.4-1.3
		c0.9-0.8,1.6-1.4,1.9-1.8c0.3-0.4,0.5-0.9,0.5-1.3c0-0.4-0.1-0.8-0.4-1.1c-0.3-0.3-0.7-0.4-1.2-0.4c-0.5,0-0.9,0.2-1.2,0.5
		s-0.5,0.7-0.5,1.3l-1.1-0.1c0.1-0.8,0.4-1.4,0.8-1.8c0.5-0.4,1.1-0.6,1.9-0.6c0.8,0,1.5,0.2,1.9,0.7c0.5,0.5,0.7,1,0.7,1.7
		c0,0.3-0.1,0.7-0.2,1c-0.1,0.3-0.4,0.7-0.7,1c-0.3,0.4-0.9,0.9-1.6,1.5c-0.6,0.5-1,0.9-1.2,1.1c-0.2,0.2-0.3,0.4-0.4,0.6H138.7z"/>
	<path fill="#00AEEF" d="M139.9,161.4c0-1,0.1-1.8,0.3-2.4c0.2-0.6,0.5-1.1,0.9-1.4c0.4-0.3,0.9-0.5,1.5-0.5c0.5,0,0.9,0.1,1.2,0.3
		c0.3,0.2,0.6,0.5,0.9,0.8s0.4,0.8,0.5,1.3s0.2,1.2,0.2,2c0,1-0.1,1.8-0.3,2.4c-0.2,0.6-0.5,1.1-0.9,1.4c-0.4,0.3-0.9,0.5-1.6,0.5
		c-0.8,0-1.5-0.3-1.9-0.9C140.2,164.2,139.9,163,139.9,161.4z M140.9,161.4c0,1.4,0.2,2.3,0.5,2.8c0.3,0.5,0.7,0.7,1.2,0.7
		c0.5,0,0.9-0.2,1.2-0.7c0.3-0.5,0.5-1.4,0.5-2.8c0-1.4-0.2-2.3-0.5-2.8c-0.3-0.5-0.7-0.7-1.2-0.7c-0.5,0-0.9,0.2-1.2,0.6
		C141.1,159,140.9,160,140.9,161.4z"/>
</g>
</svg>
