<?xml version="1.0" encoding="utf-8"?>
<!-- Generator: Adobe Illustrator 21.0.2, SVG Export Plug-In . SVG Version: 6.00 Build 0)  -->
<svg version="1.1" id="Layer_1" xmlns="http://www.w3.org/2000/svg" xmlns:xlink="http://www.w3.org/1999/xlink" x="0px" y="0px"
	 viewBox="0 0 493.1 81.6" enable-background="new 0 0 493.1 81.6" xml:space="preserve">
<polygon fill="#CCCCCC" stroke="#B3B3B3" stroke-width="0.25" stroke-miterlimit="10" points="484,0.3 476.3,13.6 491.8,13.6 "/>
<polygon fill="#E6E6E6" stroke="#CCCCCC" stroke-width="0.25" stroke-miterlimit="10" points="473.9,13.6 481.6,0.3 466.2,0.3 "/>
<g>
	<path d="M18.4,16.5H0.6V15h37v1.4H19.9v50h-1.4V16.5z"/>
	<path d="M42.6,15h1.4v32.3c0,1.8,0.1,3.4,0.2,4.8c0.1,1.4,0.3,2.6,0.6,3.7c0.3,1.1,0.6,2.1,1,3c0.4,0.9,1,1.7,1.6,2.5
		c1.3,1.7,3.1,2.9,5.3,3.7c2.2,0.8,4.7,1.2,7.6,1.2c2.9,0,5.4-0.4,7.6-1.2c2.2-0.8,3.9-2,5.3-3.7c0.6-0.8,1.2-1.6,1.6-2.5
		c0.4-0.9,0.8-1.9,1-3c0.3-1.1,0.5-2.4,0.6-3.7c0.1-1.4,0.2-3,0.2-4.8V15H78v32.3c0,2-0.1,3.7-0.2,5.2c-0.1,1.5-0.4,2.8-0.6,4
		c-0.3,1.2-0.7,2.2-1.1,3.1c-0.5,0.9-1,1.8-1.7,2.6c-1.5,1.9-3.5,3.3-5.8,4.2c-2.3,0.9-5.1,1.3-8.2,1.3c-3.2,0-5.9-0.4-8.2-1.3
		c-2.3-0.9-4.3-2.3-5.8-4.2c-0.7-0.8-1.2-1.7-1.7-2.6c-0.5-0.9-0.8-2-1.1-3.1c-0.3-1.2-0.5-2.5-0.6-4c-0.1-1.5-0.2-3.2-0.2-5.2V15z"
		/>
	<path d="M105.6,15h14.5c3,0,5.4,0.2,7.4,0.6c1.9,0.4,3.8,1.1,5.6,2.1c1.5,0.9,2.9,2,4.1,3.3c1.2,1.3,2.3,2.9,3.3,4.8
		c0.9,1.9,1.7,4,2.2,6.5c0.5,2.5,0.8,5.3,0.8,8.5c0,5.2-0.9,9.6-2.6,13.1c-1.7,3.5-3.9,6.2-6.7,8.2c-2.2,1.5-4.5,2.7-7,3.3
		c-2.5,0.7-5.4,1-8.7,1h-12.8V15z M118.5,65c3.3,0,6.1-0.3,8.5-1c2.4-0.7,4.5-1.7,6.4-3.1c2.6-2,4.7-4.6,6.3-7.9s2.4-7.4,2.4-12.2
		c0-3-0.2-5.7-0.7-8.1c-0.5-2.4-1.1-4.4-2-6.2c-0.8-1.8-1.8-3.2-3-4.5c-1.2-1.2-2.5-2.2-3.9-3.1c-1.6-0.9-3.4-1.6-5.3-1.9
		c-1.9-0.4-4.2-0.6-7.1-0.6h-13.1V65H118.5z"/>
	<path d="M151.1,15h31.3v1.4h-29.9v22.5h28.1v1.4h-28.1V65h30.9v1.4h-32.3V15z"/>
	<path d="M188.6,15h1.4v50h29.2v1.4h-30.6V15z"/>
	<path d="M224.9,15h30.9v1.4h-29.4v22.5h27.6v1.4h-27.6v26.1h-1.4V15z"/>
	<path d="M276.8,16.5H259V15h37v1.4h-17.8v50h-1.4V16.5z"/>
	<path fill="#00AEEF" d="M321,15h1.4v50h29.2v1.4H321V15z"/>
	<path fill="#00AEEF" d="M357.3,15h1.4v51.4h-1.4V15z"/>
	<path fill="#00AEEF" d="M387.9,43.9v-1.4h18.8v17.1c-1.2,1-2.4,2-3.7,3c-1.3,1-2.8,1.8-4.4,2.6c-1.6,0.8-3.3,1.4-5.3,1.8
		c-1.9,0.5-4.1,0.7-6.6,0.7c-3.5,0-6.6-0.7-9.3-2.2c-2.7-1.4-4.9-3.4-6.7-5.8c-1.8-2.4-3.2-5.3-4.1-8.6c-0.9-3.3-1.4-6.7-1.4-10.4
		c0-3.6,0.4-7.1,1.3-10.4c0.9-3.3,2.2-6.1,4-8.6c1.8-2.4,4-4.4,6.7-5.8c2.7-1.4,5.9-2.2,9.5-2.2c2.8,0,5.3,0.4,7.4,1.2
		c2.2,0.8,4.1,1.9,5.7,3.3c1.6,1.4,3,3.1,4.1,5c1.1,1.9,2,4.1,2.6,6.4l-1.3,0.3c-1.2-4.5-3.4-8.1-6.4-10.8c-3-2.7-7.1-4-12.1-4
		c-3.2,0-6.1,0.6-8.6,1.9c-2.5,1.3-4.6,3-6.3,5.3c-1.7,2.3-3,4.9-3.9,8.1c-0.9,3.1-1.3,6.5-1.3,10.2c0,3.7,0.5,7.1,1.4,10.2
		c0.9,3.1,2.2,5.8,4,8.1c1.7,2.3,3.8,4,6.3,5.3c2.5,1.3,5.3,1.9,8.5,1.9c4.1,0,7.7-0.7,10.7-2.1c3-1.4,5.6-3.2,7.8-5.2v-15H387.9z"
		/>
	<path fill="#00AEEF" d="M414.5,15h1.4v23.9h33V15h1.4v51.4H449V40.4h-33v26.1h-1.4V15z"/>
	<path fill="#00AEEF" d="M473.2,16.5h-17.8V15h37v1.4h-17.8v50h-1.4V16.5z"/>
</g>
<polygon fill="#F2F2F2" stroke="#E6E6E6" stroke-width="0.25" stroke-miterlimit="10" points="464,0.3 456.3,13.6 471.8,13.6 "/>
<g>
</g>
<g>
</g>
<g>
</g>
<g>
</g>
<g>
</g>
<g>
</g>
<g>
</g>
<g>
</g>
<g>
</g>
<g>
</g>
<g>
</g>
<g>
</g>
<g>
</g>
<g>
</g>
<g>
</g>
</svg>
